<?xml version="1.0" encoding="UTF-8"?>
<svg xmlns="http://www.w3.org/2000/svg" width="1300" height="1200" viewBox="0 0 1300 1200" font-family="'Helvetica Neue','Arial',sans-serif">
  <defs>
    <marker id="aB" markerWidth="11" markerHeight="11" refX="7" refY="5" orient="auto" markerUnits="userSpaceOnUse"><path d="M0,0 L9,5 L0,10 Z" fill="#3A6BF0"/></marker>
    <marker id="aBs" markerWidth="11" markerHeight="11" refX="2" refY="5" orient="auto" markerUnits="userSpaceOnUse"><path d="M9,0 L0,5 L9,10 Z" fill="#3A6BF0"/></marker>
    <marker id="aY" markerWidth="11" markerHeight="11" refX="7" refY="5" orient="auto" markerUnits="userSpaceOnUse"><path d="M0,0 L9,5 L0,10 Z" fill="#E0A21A"/></marker>
    <marker id="aK" markerWidth="12" markerHeight="12" refX="8" refY="5" orient="auto" markerUnits="userSpaceOnUse"><path d="M0,0 L10,5 L0,10 Z" fill="#1A1A1A"/></marker>
    <marker id="aKs" markerWidth="12" markerHeight="12" refX="2" refY="5" orient="auto" markerUnits="userSpaceOnUse"><path d="M10,0 L0,5 L10,10 Z" fill="#1A1A1A"/></marker>
    <marker id="aBig" markerWidth="9" markerHeight="9" refX="6" refY="4.5" orient="auto" markerUnits="userSpaceOnUse"><path d="M0,0 L8,4.5 L0,9 Z" fill="#2E5BEA"/></marker>
    <symbol id="bucket" viewBox="0 0 200 150">
      <path d="M28,30 H188 V140 Q108,158 28,140 Z" fill="#FFFFFF" stroke="#5B9BD5" stroke-width="2"/>
      <path d="M14,20 H174 V130 Q94,148 14,130 Z" fill="#FFFFFF" stroke="#5B9BD5" stroke-width="2"/>
      <path d="M0,10 H160 V120 Q80,138 0,120 Z" fill="#FFFFFF" stroke="#5B9BD5" stroke-width="2"/>
    </symbol>
  </defs>
  <rect x="0" y="0" width="1300" height="1200" fill="#FFFFFF"/>

  <!-- ================= CITY 1 ================= -->
  <rect x="30" y="60" width="1240" height="585" rx="14" fill="none" stroke="#5A6270" stroke-width="2" stroke-dasharray="11 8"/>
  <text x="650" y="105" text-anchor="middle" font-size="24" fill="#1A1A1A">City 1</text>
  <!-- zones -->
  <rect x="70"  y="150" width="540" height="430" rx="12" fill="none" stroke="#5A6270" stroke-width="1.6" stroke-dasharray="8 6"/>
  <rect x="690" y="150" width="540" height="430" rx="12" fill="none" stroke="#5A6270" stroke-width="1.6" stroke-dasharray="8 6"/>

  <!-- arrows into LVS -->
  <polygon points="290,66 310,66 310,92 318,92 300,112 282,92 290,92" fill="#2E5BEA"/>
  <polygon points="990,66 1010,66 1010,92 1018,92 1000,112 982,92 990,92" fill="none" stroke="#2E5BEA" stroke-width="2"/>

  <!-- LVS -->
  <rect x="245"  y="116" width="110" height="46" rx="3" fill="#FFFFFF" stroke="#3A6BF0" stroke-width="2"/><text x="300"  y="146" text-anchor="middle" font-size="20" fill="#1A1A1A">LVS</text>
  <rect x="945"  y="116" width="110" height="46" rx="3" fill="#FFFFFF" stroke="#3A6BF0" stroke-width="2"/><text x="1000" y="146" text-anchor="middle" font-size="20" fill="#1A1A1A">LVS</text>

  <!-- OSS servers -->
  <g fill="#FFFFFF" stroke="#3A6BF0" stroke-width="2">
    <rect x="150" y="210" width="120" height="62" rx="3"/>
    <rect x="320" y="210" width="120" height="62" rx="3"/>
    <rect x="850" y="210" width="120" height="62" rx="3"/>
    <rect x="1020" y="210" width="120" height="62" rx="3"/>
  </g>
  <g text-anchor="middle" font-size="17" fill="#1A1A1A">
    <text x="210" y="237">OSS</text><text x="210" y="258">Server</text>
    <text x="380" y="237">OSS</text><text x="380" y="258">Server</text>
    <text x="910" y="237">OSS</text><text x="910" y="258">Server</text>
    <text x="1080" y="237">OSS</text><text x="1080" y="258">Server</text>
  </g>
  <g fill="none" stroke="#3A6BF0" stroke-width="2">
    <line x1="290" y1="162" x2="215" y2="208" marker-end="url(#aB)"/>
    <line x1="312" y1="162" x2="375" y2="208" marker-end="url(#aB)"/>
    <line x1="990" y1="162" x2="915" y2="208" marker-end="url(#aB)"/>
    <line x1="1012" y1="162" x2="1075" y2="208" marker-end="url(#aB)"/>
  </g>

  <text x="90" y="330" font-size="17" fill="#1A1A1A">OSS Main</text><text x="90" y="351" font-size="17" fill="#1A1A1A">Cluster</text>
  <text x="1210" y="330" text-anchor="end" font-size="17" fill="#1A1A1A">OSS Backup</text><text x="1210" y="351" text-anchor="end" font-size="17" fill="#1A1A1A">Cluster</text>

  <!-- OCM each zone -->
  <rect x="455" y="288" width="160" height="76" rx="6" fill="none" stroke="#5A6270" stroke-width="1.4" stroke-dasharray="6 5"/>
  <path d="M498,300 h54 l13,26 -13,26 h-54 l-13,-26 z" fill="#FFFFFF" stroke="#3A6BF0" stroke-width="2"/><text x="525" y="332" text-anchor="middle" font-size="16" fill="#1A1A1A">OCM</text>
  <rect x="685" y="288" width="160" height="76" rx="6" fill="none" stroke="#5A6270" stroke-width="1.4" stroke-dasharray="6 5"/>
  <path d="M748,300 h54 l13,26 -13,26 h-54 l-13,-26 z" fill="#FFFFFF" stroke="#3A6BF0" stroke-width="2"/><text x="775" y="332" text-anchor="middle" font-size="16" fill="#1A1A1A">OCM</text>
  <g fill="none" stroke="#E0A21A" stroke-width="2">
    <line x1="498" y1="318" x2="272" y2="262" marker-end="url(#aY)"/>
    <line x1="500" y1="330" x2="440" y2="270" marker-end="url(#aY)"/>
    <line x1="802" y1="318" x2="1028" y2="262" marker-end="url(#aY)"/>
    <line x1="800" y1="330" x2="860" y2="270" marker-end="url(#aY)"/>
  </g>

  <!-- RDS each zone + black sync -->
  <rect x="455" y="392" width="390" height="78" rx="6" fill="none" stroke="#5A6270" stroke-width="1.4" stroke-dasharray="6 5"/>
  <g fill="#FFFFFF" stroke="#3A6BF0" stroke-width="2">
    <path d="M498,418 a30,11 0 0 1 60,0 v28 a30,11 0 0 1 -60,0 z"/>
    <path d="M742,418 a30,11 0 0 1 60,0 v28 a30,11 0 0 1 -60,0 z"/>
  </g>
  <ellipse cx="528" cy="418" rx="30" ry="11" fill="#FFFFFF" stroke="#3A6BF0" stroke-width="2"/>
  <ellipse cx="772" cy="418" rx="30" ry="11" fill="#FFFFFF" stroke="#3A6BF0" stroke-width="2"/>
  <text x="528" y="446" text-anchor="middle" font-size="16" fill="#1A1A1A">RDS</text>
  <text x="772" y="446" text-anchor="middle" font-size="16" fill="#1A1A1A">RDS</text>
  <line x1="560" y1="432" x2="740" y2="432" stroke="#1A1A1A" stroke-width="2.5" marker-end="url(#aK)" marker-start="url(#aKs)"/>
  <!-- ocm-rds short links -->
  <g fill="none" stroke="#3A6BF0" stroke-width="1.8"><line x1="525" y1="352" x2="528" y2="392"/><line x1="775" y1="352" x2="772" y2="392"/></g>

  <!-- buckets city1 -->
  <use href="#bucket" x="120" y="400" width="200" height="150"/>
  <use href="#bucket" x="980" y="400" width="200" height="150"/>
  <g text-anchor="middle" font-size="16" fill="#1A1A1A">
    <text x="210" y="456">KV, Pangu, OSS</text><text x="210" y="476">Sync Service</text>
    <text x="1070" y="456">KV, Pangu, OSS</text><text x="1070" y="476">Sync Service</text>
  </g>
  <g fill="none" stroke="#3A6BF0" stroke-width="2">
    <line x1="210"  y1="272" x2="200"  y2="412" marker-start="url(#aBs)" marker-end="url(#aB)"/>
    <line x1="380"  y1="272" x2="285"  y2="412" marker-start="url(#aBs)" marker-end="url(#aB)"/>
    <line x1="910"  y1="272" x2="1010" y2="412" marker-start="url(#aBs)" marker-end="url(#aB)"/>
    <line x1="1080" y1="272" x2="1115" y2="412" marker-start="url(#aBs)" marker-end="url(#aB)"/>
  </g>
  <text x="300" y="540" text-anchor="middle" font-size="18" fill="#1A1A1A">Bucket A</text>
  <text x="1000" y="540" text-anchor="middle" font-size="18" fill="#1A1A1A">Bucket A'</text>
  <text x="200" y="618" text-anchor="middle" font-size="22" font-weight="700" fill="#1A1A1A">Zone A</text>
  <text x="1080" y="618" text-anchor="middle" font-size="22" font-weight="700" fill="#1A1A1A">Zone B</text>

  <!-- ================= CITY 2 ================= -->
  <rect x="350" y="705" width="600" height="430" rx="14" fill="none" stroke="#5A6270" stroke-width="2" stroke-dasharray="11 8"/>
  <text x="880" y="755" text-anchor="middle" font-size="24" fill="#1A1A1A">City 2</text>
  <rect x="390" y="770" width="520" height="320" rx="12" fill="none" stroke="#5A6270" stroke-width="1.6" stroke-dasharray="8 6"/>

  <!-- bucket B -->
  <use href="#bucket" x="430" y="775" width="200" height="150"/>
  <text x="520" y="831" text-anchor="middle" font-size="16" fill="#1A1A1A">KV, Pangu, OSS</text><text x="520" y="851" text-anchor="middle" font-size="16" fill="#1A1A1A">Sync Service</text>
  <text x="610" y="770" text-anchor="middle" font-size="18" fill="#1A1A1A">Bucket B</text>

  <!-- OCM C + RDS C -->
  <path d="M773,815 h54 l13,26 -13,26 h-54 l-13,-26 z" fill="#FFFFFF" stroke="#3A6BF0" stroke-width="2"/><text x="800" y="847" text-anchor="middle" font-size="16" fill="#1A1A1A">OCM</text>
  <path d="M770,895 a30,11 0 0 1 60,0 v26 a30,11 0 0 1 -60,0 z" fill="#FFFFFF" stroke="#3A6BF0" stroke-width="2"/>
  <ellipse cx="800" cy="895" rx="30" ry="11" fill="#FFFFFF" stroke="#3A6BF0" stroke-width="2"/>
  <text x="800" y="921" text-anchor="middle" font-size="16" fill="#1A1A1A">RDS</text>
  <line x1="800" y1="867" x2="800" y2="884" stroke="#3A6BF0" stroke-width="1.8"/>

  <!-- OSS servers C -->
  <g fill="#FFFFFF" stroke="#3A6BF0" stroke-width="2">
    <rect x="450" y="960" width="120" height="60" rx="3"/>
    <rect x="610" y="960" width="120" height="60" rx="3"/>
  </g>
  <g text-anchor="middle" font-size="17" fill="#1A1A1A">
    <text x="510" y="986">OSS</text><text x="510" y="1007">Server</text>
    <text x="670" y="986">OSS</text><text x="670" y="1007">Server</text>
  </g>
  <g fill="none" stroke="#E0A21A" stroke-width="2">
    <line x1="773" y1="838" x2="572" y2="968" marker-end="url(#aY)"/>
    <line x1="784" y1="852" x2="732" y2="968" marker-end="url(#aY)"/>
  </g>
  <g fill="none" stroke="#3A6BF0" stroke-width="2">
    <line x1="510" y1="958" x2="515" y2="920" marker-start="url(#aBs)" marker-end="url(#aB)"/>
    <line x1="670" y1="958" x2="585" y2="920" marker-start="url(#aBs)" marker-end="url(#aB)"/>
  </g>
  <!-- LVS C -->
  <rect x="565" y="1058" width="110" height="46" rx="3" fill="#FFFFFF" stroke="#3A6BF0" stroke-width="2"/><text x="620" y="1088" text-anchor="middle" font-size="20" fill="#1A1A1A">LVS</text>
  <polygon points="470,1071 520,1071 520,1066 538,1081 520,1096 520,1091 470,1091" fill="none" stroke="#2E5BEA" stroke-width="2"/>
  <g fill="none" stroke="#3A6BF0" stroke-width="2">
    <line x1="600" y1="1058" x2="540" y2="1022" marker-end="url(#aB)"/>
    <line x1="640" y1="1058" x2="680" y2="1022" marker-end="url(#aB)"/>
  </g>
  <text x="880" y="1070" text-anchor="middle" font-size="22" font-weight="700" fill="#1A1A1A">Zone C</text>

  <!-- ================= DATA SYNC (triangle) ================= -->
  <line x1="270" y1="555" x2="500" y2="775" stroke="#2E5BEA" stroke-width="9" marker-end="url(#aBig)"/>
  <line x1="1030" y1="555" x2="640" y2="775" stroke="#2E5BEA" stroke-width="9" marker-end="url(#aBig)"/>
  <text x="650" y="680" text-anchor="middle" font-size="20" fill="#1A1A1A">Data Sync</text>

  <!-- brand -->
  <text x="40" y="1180" font-size="15" font-weight="800" fill="#0A3CD9" letter-spacing="0.5">ALIBABA CLOUD INTELLIGENCE</text>
  <text x="340" y="1180" font-size="15" font-weight="800" fill="#8A8F99" letter-spacing="0.5">GROUP</text>
</svg>
